<svg width="45" height="30" viewBox="0 0 45 30" fill="none" xmlns="http://www.w3.org/2000/svg">
<path d="M40.3125 0H4.68746C2.10375 0 0 2.10375 0 4.68755V25.3125C0 27.8963 2.10375 30 4.68746 30H40.3124C42.8961 30 44.9998 27.8963 44.9998 25.3125V4.68755C44.9999 2.10375 42.8962 0 40.3125 0ZM43.1249 25.3125C43.1249 26.8631 41.8631 28.1249 40.3125 28.1249H4.68746C3.13681 28.1249 1.87497 26.8631 1.87497 25.3125V4.68755C1.87497 3.1369 3.13681 1.87506 4.68746 1.87506H40.3124C41.863 1.87506 43.1249 3.1369 43.1249 4.68755V25.3125H43.1249Z" fill="black"/>
<path d="M44.0624 5.625H0.937528C0.420029 5.625 0 6.04503 0 6.56253V12.1875C0 12.705 0.420029 13.125 0.937528 13.125H44.0625C44.58 13.125 45 12.705 45 12.1875V6.56253C44.9999 6.04503 44.5799 5.625 44.0624 5.625ZM43.1249 11.25H1.87497V7.49997H43.1249V11.25H43.1249Z" fill="black"/>
<path d="M17.8125 18.75H6.56253C6.04503 18.75 5.625 19.17 5.625 19.6875C5.625 20.205 6.04503 20.625 6.56253 20.625H17.8125C18.33 20.625 18.75 20.2049 18.75 19.6874C18.75 19.1699 18.33 18.75 17.8125 18.75Z" fill="black"/>
<path d="M17.8125 22.5H6.56253C6.04503 22.5 5.625 22.92 5.625 23.4375C5.625 23.955 6.04503 24.3751 6.56253 24.3751H17.8125C18.33 24.3751 18.75 23.955 18.75 23.4375C18.7499 22.92 18.33 22.5 17.8125 22.5Z" fill="black"/>
<path d="M36.5625 16.875H34.6875C33.1368 16.875 31.875 18.1368 31.875 19.6875V21.5625C31.875 23.1131 33.1368 24.375 34.6875 24.375H36.5625C38.1131 24.375 39.375 23.1131 39.375 21.5625V19.6875C39.375 18.1369 38.1131 16.875 36.5625 16.875ZM37.5 21.5625C37.5 22.08 37.08 22.5001 36.5625 22.5001H34.6875C34.17 22.5001 33.75 22.08 33.75 21.5625V19.6876C33.75 19.1701 34.17 18.7501 34.6875 18.7501H36.5625C37.08 18.7501 37.5 19.1701 37.5 19.6876V21.5625Z" fill="black"/>
</svg>
