<svg width="30" height="31" viewBox="0 0 30 31" fill="none" xmlns="http://www.w3.org/2000/svg">
<path d="M9.60078 1.85986C5.30027 1.85986 1.80078 5.476 1.80078 9.91986V21.0799C1.80078 25.5237 5.30027 29.1399 9.60078 29.1399H20.4008C24.7013 29.1399 28.2008 25.5237 28.2008 21.0799V9.91986C28.2008 5.476 24.7013 1.85986 20.4008 1.85986H9.60078ZM9.60078 3.09986H20.4008C24.0527 3.09986 27.0008 6.14624 27.0008 9.91986V21.0799C27.0008 24.8535 24.0527 27.8999 20.4008 27.8999H9.60078C5.94889 27.8999 3.00078 24.8535 3.00078 21.0799V9.91986C3.00078 6.14624 5.94889 3.09986 9.60078 3.09986ZM22.2008 6.81986C21.8825 6.81986 21.5773 6.95051 21.3523 7.18305C21.1272 7.4156 21.0008 7.73099 21.0008 8.05986C21.0008 8.38873 21.1272 8.70413 21.3523 8.93667C21.5773 9.16922 21.8825 9.29986 22.2008 9.29986C22.519 9.29986 22.8243 9.16922 23.0493 8.93667C23.2744 8.70413 23.4008 8.38873 23.4008 8.05986C23.4008 7.73099 23.2744 7.4156 23.0493 7.18305C22.8243 6.95051 22.519 6.81986 22.2008 6.81986ZM15.0008 8.67986C11.3628 8.67986 8.40078 11.7406 8.40078 15.4999C8.40078 19.2591 11.3628 22.3199 15.0008 22.3199C18.6388 22.3199 21.6008 19.2591 21.6008 15.4999C21.6008 11.7406 18.6388 8.67986 15.0008 8.67986ZM15.0008 9.91986C17.9902 9.91986 20.4008 12.4108 20.4008 15.4999C20.4008 18.589 17.9902 21.0799 15.0008 21.0799C12.0113 21.0799 9.60078 18.589 9.60078 15.4999C9.60078 12.4108 12.0113 9.91986 15.0008 9.91986Z" fill="#F7B1A5"/>
</svg>
