<svg width="14" height="15" viewBox="0 0 14 15" fill="none" xmlns="http://www.w3.org/2000/svg">
<path d="M12.636 6.23016V4.90143C12.636 4.58268 12.5118 4.28294 12.2863 4.05735L8.58009 0.350713C8.35395 0.124541 8.05318 0 7.73312 0H2.15783C1.31839 0 0.635449 0.681768 0.635449 1.51978V4.16408C0.635449 4.28546 0.733828 4.38381 0.855176 4.38381C0.976523 4.38381 1.0749 4.28546 1.0749 4.16408V1.51978C1.0749 0.924082 1.5607 0.439453 2.15783 0.439453H7.73312C7.79593 0.439453 7.8583 0.44748 7.91868 0.462832V2.42394C7.91868 2.54531 8.01706 2.64366 8.13841 2.64366C8.25976 2.64366 8.35813 2.54531 8.35813 2.42394V0.750264L11.8859 4.27843H9.01907C8.65465 4.27843 8.35813 3.98186 8.35813 3.61731V3.44936C8.35813 3.32798 8.25976 3.22963 8.13841 3.22963C8.01706 3.22963 7.91868 3.32798 7.91868 3.44936V3.61731C7.91868 4.22417 8.41233 4.71788 9.01907 4.71788H12.1742C12.189 4.77721 12.1966 4.83873 12.1966 4.90143V6.04266C12.0948 6.01884 11.9888 6.00586 11.8799 6.00586H11.0951C10.9738 6.00586 10.8754 6.10421 10.8754 6.22559C10.8754 6.34696 10.9738 6.44531 11.0951 6.44531H11.8799C12.4049 6.44531 12.832 6.87243 12.832 7.39746V11.6748C12.832 12.1998 12.4049 12.627 11.8799 12.627H6.47221C6.35086 12.627 6.25248 12.7253 6.25248 12.8467C6.25248 12.9681 6.35086 13.0664 6.47221 13.0664H11.8799C11.9888 13.0664 12.0948 13.0534 12.1966 13.0296V13.4802C12.1966 14.0759 11.7108 14.5605 11.1137 14.5605H2.15783C1.5607 14.5605 1.0749 14.0759 1.0749 13.4802V13.0296C1.17671 13.0534 1.28265 13.0664 1.3916 13.0664H5.44682C5.56816 13.0664 5.66654 12.9681 5.66654 12.8467C5.66654 12.7253 5.56816 12.627 5.44682 12.627H1.3916C0.866602 12.627 0.439453 12.1998 0.439453 11.6748V7.39746C0.439453 6.87243 0.866602 6.44531 1.3916 6.44531H10.0697C10.1911 6.44531 10.2894 6.34696 10.2894 6.22559C10.2894 6.10421 10.1911 6.00586 10.0697 6.00586H1.3916C1.28265 6.00586 1.17671 6.01884 1.0749 6.04266V5.18947C1.0749 5.0681 0.976523 4.96975 0.855176 4.96975C0.733828 4.96975 0.635449 5.0681 0.635449 5.18947V6.23016C0.253389 6.47848 0 6.90882 0 7.39746V11.6748C0 12.1634 0.253389 12.5938 0.635449 12.8421V13.4802C0.635449 14.3182 1.31839 15 2.15783 15H11.1137C11.9531 15 12.636 14.3182 12.636 13.4802V12.8421C13.0181 12.5938 13.2715 12.1634 13.2715 11.6748V7.39746C13.2715 6.90882 13.0181 6.47848 12.636 6.23016Z" fill="white"/>
<path d="M10.3915 8.09814C10.5128 8.09814 10.6112 7.99979 10.6112 7.87842C10.6112 7.75704 10.5128 7.65869 10.3915 7.65869H9.04785C8.9265 7.65869 8.82812 7.75704 8.82812 7.87842V11.1936C8.82812 11.315 8.9265 11.4133 9.04785 11.4133C9.1692 11.4133 9.26758 11.315 9.26758 11.1936V9.72436H10.2848C10.4061 9.72436 10.5045 9.62601 10.5045 9.50463C10.5045 9.38325 10.4061 9.2849 10.2848 9.2849H9.26758V8.09814H10.3915Z" fill="white"/>
<path d="M5.57644 11.1039C5.57073 11.2386 5.65578 11.3802 5.80355 11.3763C5.83124 11.3762 6.48447 11.3737 6.74474 11.3691C7.18595 11.3614 7.57885 11.1615 7.85111 10.8061C8.1035 10.4767 8.24252 10.0257 8.24252 9.53613C8.24252 8.43547 7.62828 7.69596 6.71404 7.69596H5.79617C5.67684 7.69359 5.57228 7.79982 5.57644 7.91906V11.1039ZM6.71404 8.13542C7.51698 8.13542 7.80306 8.85896 7.80306 9.53613C7.80306 10.3457 7.36469 10.9187 6.73707 10.9297C6.57353 10.9326 6.24274 10.9346 6.0217 10.9358C6.02047 10.5734 6.01824 9.85863 6.01824 9.53255C6.01824 9.26 6.01698 8.51068 6.01631 8.13544H6.71404V8.13542Z" fill="white"/>
<path d="M2.87991 7.64652C2.76179 7.64415 2.65816 7.74839 2.66019 7.86625V11.2059C2.66019 11.3272 2.75856 11.4256 2.87991 11.4256C3.00126 11.4256 3.09964 11.3272 3.09964 11.2059V9.97375C3.3174 9.97252 3.64685 9.97082 3.80982 9.97082C4.46083 9.97082 4.99046 9.44948 4.99046 8.80867C4.99046 8.16786 4.46083 7.64649 3.80982 7.64649H2.87991V7.64652ZM4.55101 8.8087C4.55101 9.20043 4.2116 9.5314 3.80982 9.5314C3.64787 9.5314 3.32314 9.53307 3.10485 9.5343C3.10362 9.31056 3.10195 8.97385 3.10195 8.8087C3.10195 8.66978 3.10099 8.31842 3.10031 8.08598H3.80982C4.21157 8.08598 4.55101 8.41694 4.55101 8.8087Z" fill="white"/>
</svg>
