<svg width="30" height="31" viewBox="0 0 30 31" fill="none" xmlns="http://www.w3.org/2000/svg">
<path d="M26.6262 3.7113C26.334 3.72454 26.0495 3.80859 25.793 3.91473C25.5391 4.02017 24.0774 4.66486 21.9188 5.61852C19.7602 6.57218 16.9542 7.81405 14.1727 9.04548C8.60965 11.5083 3.14301 13.9316 3.14301 13.9316L3.18285 13.9159C3.18285 13.9159 2.85291 14.0298 2.5184 14.2707C2.35114 14.3911 2.1712 14.5466 2.02387 14.7732C1.87654 14.9999 1.76882 15.3211 1.80942 15.6608C1.95199 16.8542 3.14887 17.1927 3.14887 17.1927L3.15356 17.1951L8.49496 19.0841C8.63115 19.5536 10.115 24.6714 10.4414 25.7552C10.6217 26.3544 10.7904 26.7001 10.9664 26.9359C11.0545 27.0539 11.1468 27.1452 11.2489 27.212C11.2894 27.2385 11.3321 27.2584 11.3743 27.2761C11.3752 27.2766 11.3757 27.2757 11.3766 27.2761C11.3818 27.2785 11.3867 27.2787 11.3918 27.281L11.3778 27.2774C11.3876 27.2814 11.3973 27.2883 11.4071 27.2919C11.4261 27.2988 11.4378 27.2985 11.4622 27.304C12.0739 27.5247 12.5801 27.1151 12.5801 27.1151L12.6012 27.0981L15.8825 23.9533L21.2075 28.2437L21.2743 28.2752C22.2063 28.7028 23.0493 28.4642 23.5161 28.0717C23.9829 27.6792 24.1664 27.1732 24.1664 27.1732L24.1864 27.1199L28.0993 6.04598C28.1994 5.57451 28.2136 5.16698 28.1192 4.79872C28.0248 4.43046 27.7953 4.11033 27.5075 3.9329C27.2196 3.75546 26.9184 3.69805 26.6262 3.7113ZM26.6579 4.97188C26.7765 4.9662 26.8645 4.98022 26.8922 4.99731C26.92 5.0144 26.9324 5.01215 26.959 5.11598C26.9856 5.21982 27.0001 5.43851 26.9274 5.78079L26.925 5.78805L23.0344 26.7397C23.0252 26.7608 22.9441 26.9546 22.759 27.1102C22.5702 27.269 22.3602 27.393 21.8028 27.1514L15.9797 22.459L15.8157 22.3258L15.8122 22.3295L14.0707 20.9793L23.8571 9.08181C23.9323 8.99062 23.9803 8.87888 23.9953 8.76009C24.0104 8.64131 23.9918 8.52056 23.9418 8.41245C23.8919 8.30434 23.8127 8.2135 23.7138 8.15091C23.615 8.08832 23.5007 8.05667 23.3848 8.05977C23.2716 8.06281 23.1615 8.09892 23.0672 8.16391L8.90629 17.9192L3.55668 16.0265C3.55668 16.0265 3.02547 15.7211 3.00004 15.5082C2.99863 15.4965 2.99236 15.5071 3.01996 15.4647C3.04757 15.4222 3.11695 15.3505 3.20395 15.2879C3.37793 15.1626 3.5766 15.0868 3.5766 15.0868L3.59652 15.0796L3.61645 15.0711C3.61645 15.0711 9.08338 12.6477 14.6461 10.185C17.4275 8.9536 20.233 7.71265 22.3911 6.75923C24.5485 5.80605 26.1075 5.11996 26.2395 5.06512C26.3898 5.00294 26.5392 4.97756 26.6579 4.97188ZM20.168 11.6514L12.7465 20.6741L12.743 20.6777C12.7314 20.6922 12.7205 20.7071 12.7102 20.7225C12.6984 20.7393 12.6875 20.7567 12.6774 20.7746C12.6357 20.8477 12.609 20.9289 12.5989 21.0132C12.5989 21.0148 12.5989 21.0164 12.5989 21.018L11.6321 25.5106C11.616 25.4621 11.6047 25.4443 11.5875 25.3871V25.3859C11.2805 24.3663 9.88046 19.5398 9.68676 18.8722L20.168 11.6514ZM13.5844 22.1527L14.918 23.1868L12.9586 25.0638L13.5844 22.1527Z" fill="#F7B1A5"/>
</svg>
