<svg width="30" height="31" viewBox="0 0 30 31" fill="none" xmlns="http://www.w3.org/2000/svg">
<path d="M14.9992 1.24023C7.38494 1.24023 1.19922 7.63214 1.19922 15.5002C1.19922 18.0293 1.87043 20.3895 2.98984 22.4498L1.22148 28.9731C1.19323 29.0775 1.19196 29.1877 1.21778 29.2928C1.24361 29.3978 1.29563 29.4941 1.36867 29.5719C1.44171 29.6497 1.53321 29.7063 1.63404 29.7362C1.73488 29.766 1.84153 29.7681 1.94336 29.7421L8.52578 28.0564C10.46 29.1234 12.6548 29.7602 14.9992 29.7602C22.6135 29.7602 28.7992 23.3683 28.7992 15.5002C28.7992 7.63214 22.6135 1.24023 14.9992 1.24023ZM14.9992 2.48023C21.9649 2.48023 27.5992 8.30232 27.5992 15.5002C27.5992 22.6981 21.9649 28.5202 14.9992 28.5202C12.766 28.5202 10.6745 27.9186 8.85625 26.8673C8.72327 26.7905 8.567 26.7689 8.41914 26.8068L2.65469 28.2829L4.20039 22.5842C4.22251 22.5037 4.22861 22.4194 4.21834 22.3363C4.20807 22.2533 4.18163 22.1732 4.14062 22.1011C3.03563 20.1649 2.39922 17.9121 2.39922 15.5002C2.39922 8.30232 8.0335 2.48023 14.9992 2.48023ZM9.98476 8.06023C9.60014 8.06023 9.05084 8.2081 8.59961 8.71051C8.32858 9.01227 7.19922 10.1493 7.19922 12.1484C7.19922 14.2325 8.59805 16.0309 8.76719 16.2619H8.76836V16.2631C8.75231 16.2413 8.98304 16.5866 9.29101 17.0006C9.59899 17.4146 10.0297 17.9583 10.5707 18.547C11.6528 19.7242 13.1742 21.0848 15.0625 21.917C15.9321 22.2996 16.6181 22.5307 17.1379 22.6993C18.1011 23.0118 18.9785 22.9643 19.6375 22.8639C20.1308 22.7889 20.6733 22.5441 21.2102 22.1931C21.747 21.842 22.2731 21.4056 22.5051 20.7424C22.6713 20.2669 22.7558 19.8276 22.7863 19.4661C22.8016 19.2853 22.8035 19.1257 22.7922 18.978C22.7808 18.8303 22.793 18.7172 22.6598 18.4912C22.3804 18.0173 22.0641 18.0049 21.734 17.8361C21.5506 17.7423 21.0284 17.4789 20.5047 17.221C19.9815 16.9634 19.5286 16.7352 19.2496 16.6325C19.0734 16.5669 18.8581 16.4726 18.5477 16.5089C18.2372 16.5453 17.9305 16.7768 17.752 17.0502C17.5827 17.3094 16.9014 18.1404 16.6937 18.3847C16.691 18.3829 16.709 18.3915 16.627 18.3496C16.3701 18.2182 16.0559 18.1065 15.591 17.8531C15.1261 17.5997 14.5446 17.2255 13.9082 16.6458V16.6446C12.961 15.7829 12.2976 14.7011 12.0883 14.3377C12.1024 14.3204 12.0866 14.3414 12.1164 14.3111L12.1176 14.3099C12.3315 14.0922 12.5211 13.8321 12.6812 13.6414C12.9084 13.3711 13.0086 13.1327 13.1172 12.91C13.3336 12.4662 13.2131 11.9779 13.0879 11.7209V11.7197C13.0965 11.7375 13.0202 11.5633 12.9379 11.3625C12.8554 11.161 12.7502 10.8999 12.6379 10.6214C12.4132 10.0644 12.1624 9.43968 12.0133 9.07379V9.07258C11.8376 8.6416 11.5999 8.33112 11.2891 8.18133C10.9783 8.03154 10.7037 8.07412 10.6926 8.07355H10.6914C10.4696 8.06298 10.2262 8.06023 9.98476 8.06023ZM9.98476 9.30023C10.2161 9.30023 10.4441 9.30315 10.6352 9.31234C10.8317 9.32246 10.8194 9.32329 10.7816 9.30508C10.7432 9.28658 10.7953 9.28057 10.907 9.55453C11.0531 9.9128 11.3051 10.5398 11.5305 11.0985C11.6431 11.3778 11.7486 11.64 11.8328 11.8456C11.917 12.0512 11.9627 12.1661 12.0156 12.2755V12.2767L12.0168 12.2779C12.0687 12.3838 12.0641 12.316 12.0461 12.353C11.9195 12.6127 11.9023 12.6764 11.7742 12.8289C11.5792 13.0611 11.3803 13.3199 11.275 13.4271C11.1829 13.5206 11.0167 13.6663 10.9129 13.9514C10.8089 14.237 10.8575 14.6289 11.0242 14.9214C11.2462 15.3109 11.9779 16.5414 13.1148 17.5758C13.8309 18.228 14.498 18.6597 15.0309 18.9502C15.5638 19.2407 15.9978 19.4103 16.0949 19.46C16.3255 19.5779 16.5776 19.6695 16.8707 19.6332C17.1638 19.5968 17.4165 19.413 17.5773 19.2251L17.5785 19.2239C17.7926 18.9731 18.4287 18.2225 18.734 17.7598C18.7469 17.7646 18.7427 17.7609 18.8441 17.7986V17.7998H18.8453C18.8916 17.8168 19.4718 18.0852 19.9891 18.3399C20.5063 18.5946 21.0314 18.8593 21.2019 18.9466C21.4482 19.0725 21.5645 19.1544 21.5945 19.1548C21.5966 19.2094 21.5986 19.2685 21.591 19.3583C21.57 19.6073 21.5056 19.952 21.3766 20.321C21.3134 20.5016 20.9842 20.8742 20.5691 21.1456C20.154 21.4171 19.6488 21.6088 19.4617 21.6373C18.8992 21.7229 18.2312 21.7542 17.4977 21.5162C16.989 21.3512 16.3548 21.1376 15.5336 20.7763C13.8681 20.0423 12.4526 18.7934 11.4414 17.6932C10.9358 17.1432 10.5308 16.6311 10.2426 16.2437C9.95494 15.8571 9.82933 15.6559 9.72461 15.5136L9.72344 15.5123C9.53754 15.2583 8.39922 13.6222 8.39922 12.1484C8.39922 10.5886 9.10032 9.97692 9.47969 9.55453C9.67885 9.33278 9.89659 9.30023 9.98476 9.30023Z" fill="#F7B1A5"/>
</svg>
